<svg width="28" height="28" viewBox="0 0 28 28" fill="none" xmlns="http://www.w3.org/2000/svg">
<g clip-path="url(#clip0_112_3)">
<g filter="url(#filter0_d_112_3)">
<circle cx="14" cy="14" r="10.5" stroke="#666666" shape-rendering="crispEdges"/>
</g>
<path d="M23 4L24.4142 6.58579L27 8L24.4142 9.41421L23 12L21.5858 9.41421L19 8L21.5858 6.58579L23 4Z" fill="white" stroke="#181818"/>
<path d="M4 11L5.41421 13.5858L8 15L5.41421 16.4142L4 19L2.58579 16.4142L0 15L2.58579 13.5858L4 11Z" fill="white" stroke="#181818"/>
<path d="M19 19L20.4142 21.5858L23 23L20.4142 24.4142L19 27L17.5858 24.4142L15 23L17.5858 21.5858L19 19Z" fill="white" stroke="#181818"/>
</g>
<defs>
<filter id="filter0_d_112_3" x="-1" y="3" width="30" height="30" filterUnits="userSpaceOnUse" color-interpolation-filters="sRGB">
<feFlood flood-opacity="0" result="BackgroundImageFix"/>
<feColorMatrix in="SourceAlpha" type="matrix" values="0 0 0 0 0 0 0 0 0 0 0 0 0 0 0 0 0 0 127 0" result="hardAlpha"/>
<feOffset dy="4"/>
<feGaussianBlur stdDeviation="2"/>
<feComposite in2="hardAlpha" operator="out"/>
<feColorMatrix type="matrix" values="0 0 0 0 0 0 0 0 0 0 0 0 0 0 0 0 0 0 0.25 0"/>
<feBlend mode="normal" in2="BackgroundImageFix" result="effect1_dropShadow_112_3"/>
<feBlend mode="normal" in="SourceGraphic" in2="effect1_dropShadow_112_3" result="shape"/>
</filter>
<clipPath id="clip0_112_3">
<rect width="28" height="28" fill="white"/>
</clipPath>
</defs>
</svg>
